<svg width="69" height="64" viewBox="0 0 69 64" fill="none" xmlns="http://www.w3.org/2000/svg">
<path d="M0.36 24.46C0.12 24.22 -1.57361e-08 23.92 0 23.56C2.09814e-08 23.08 0.42 22.6 1.26 22.12C2.1 21.76 2.82 21.88 3.42 22.48L39.42 54.88L65.34 22.3C65.58 21.94 65.88 21.76 66.24 21.76C66.84 21.76 67.44 22.12 68.04 22.84C68.64 23.56 68.76 24.16 68.4 24.64L44.82 61.18C43.86 62.5 42.66 63.16 41.22 63.16C39.42 63.16 37.56 62.2 35.64 60.28L0.36 24.46Z" fill="#21A8A3"/>
<path d="M11.54 1.8C11.38 1.64 11.3 1.44 11.3 1.2C11.3 0.879997 11.58 0.559997 12.14 0.239997C12.7 -2.45869e-06 13.18 0.0799977 13.58 0.479997L37.58 22.08L54.86 0.359999C55.02 0.12 55.22 -1.04907e-08 55.46 0C55.86 1.74845e-08 56.26 0.24 56.66 0.72C57.06 1.2 57.14 1.6 56.9 1.92L41.18 26.28C40.54 27.16 39.74 27.6 38.78 27.6C37.58 27.6 36.34 26.96 35.06 25.68L11.54 1.8Z" fill="#21A8A3"/>
</svg>
