<svg width="165" height="103" viewBox="0 0 165 103" fill="none" xmlns="http://www.w3.org/2000/svg">
<path d="M98.8513 103H93.4666H89.3245L113.625 27.3378H124.394L98.8513 103Z" fill="black"/>
<path d="M55.9115 10.7694H41V0H55.9115C76.1249 0.220912 83.6635 12.6104 84.9062 18.7775C86.2408 21.4468 87.9713 29.4641 84.2158 40.1783C80.4603 50.8925 70.1327 56.0563 65.4383 57.2989L89.3244 102.862H76.622L53.7024 57.2989H41V47.0818H55.9115C59.8695 47.1278 68.5587 45.8115 71.6515 40.1783C75.5174 33.1367 75.9316 26.7855 71.6515 18.7775C68.2273 12.371 59.7315 10.7694 55.9115 10.7694Z" fill="black"/>
<path d="M0 70.039V66.2735L30.3126 50.8347V56.8596L7.06038 68.0621L7.24866 67.6855V68.6269L7.06038 68.2504L30.3126 79.4528V85.4777L0 70.039Z" fill="black"/>
<path d="M165 70.039V66.2735L134.687 50.8348V56.8596L157.94 68.0621L157.751 67.6856V68.6269L157.94 68.2504L134.687 79.4529V85.4777L165 70.039Z" fill="black"/>
</svg>
