<svg width="732" height="373" viewBox="0 0 732 373" fill="none" xmlns="http://www.w3.org/2000/svg">
<path d="M424.5 373H405H390L478 99H517L424.5 373Z" fill="#FFCC15"/>
<path d="M269 39H215V0H269C342.2 0.8 369.5 45.6667 374 68C378.833 77.6667 385.1 106.7 371.5 145.5C357.9 184.3 320.5 203 303.5 207.5L390 372.5H344L261 207.5H215V170.5H269C283.333 170.667 314.8 165.9 326 145.5C340 120 341.5 97 326 68C313.6 44.8 282.833 39 269 39Z" fill="#FFCC15"/>
<path d="M24.2045 253.636V240L133.977 184.091V205.909L49.7727 246.477L50.4545 245.114V248.523L49.7727 247.159L133.977 287.727V309.545L24.2045 253.636Z" fill="#FFCC15"/>
<path d="M707.795 253.636V240L598.023 184.091V205.909L682.227 246.477L681.545 245.114V248.523L682.227 247.159L598.023 287.727V309.545L707.795 253.636Z" fill="#FFCC15"/>
</svg>
